<svg xmlns="http://www.w3.org/2000/svg" viewBox="0 0 800 400" font-family="-apple-system, BlinkMacSystemFont, 'Segoe UI', Roboto, 'Helvetica Neue', Arial, sans-serif" role="img" aria-label="Multiple selected files all land in one Body rich text field on the document as multiple $FILE attachments; RemoveItem removes them all at once">
  <rect x="0" y="0" width="800" height="400" rx="12" fill="#f7f7f4" stroke="#e2e2dc" stroke-width="1.5"/>

  <!-- Left: file picker with multiple selection -->
  <text x="150" y="42" text-anchor="middle" font-size="15" font-weight="700" fill="#1a1a1a">Browser file picker (multiple)</text>
  <rect x="40" y="60" width="220" height="150" rx="8" fill="#ffffff" stroke="#c9c9c1" stroke-width="1.5"/>
  <g font-size="14" fill="#2b2b2b">
    <rect x="58" y="78" width="184" height="30" rx="5" fill="#eef4f3" stroke="#bcd6d2"/>
    <text x="70" y="98">📄 report.pdf</text>
    <rect x="58" y="116" width="184" height="30" rx="5" fill="#eef4f3" stroke="#bcd6d2"/>
    <text x="70" y="136">🖼 chart.png</text>
    <rect x="58" y="154" width="184" height="30" rx="5" fill="#eef4f3" stroke="#bcd6d2"/>
    <text x="70" y="174">📎 spec.docx</text>
  </g>
  <text x="150" y="200" text-anchor="middle" font-size="12" fill="#6b6b63">select several at once</text>

  <!-- Arrow -->
  <g stroke="#0f766e" stroke-width="2.5" fill="none">
    <path d="M270 135 H330" marker-end="url(#arrow)"/>
  </g>
  <defs>
    <marker id="arrow" markerWidth="10" markerHeight="10" refX="7" refY="4" orient="auto">
      <path d="M0 0 L8 4 L0 8 z" fill="#0f766e"/>
    </marker>
  </defs>

  <!-- Right: document + Body rich text field holding $FILE items -->
  <text x="565" y="42" text-anchor="middle" font-size="15" font-weight="700" fill="#1a1a1a">One document · Body rich text field</text>
  <rect x="350" y="60" width="430" height="205" rx="8" fill="#ffffff" stroke="#c9c9c1" stroke-width="1.5"/>
  <text x="372" y="86" font-size="13" font-weight="600" fill="#0f766e">NotesDocument</text>
  <rect x="372" y="98" width="386" height="150" rx="6" fill="#faf8f2" stroke="#e4d9b8" stroke-width="1.3"/>
  <text x="388" y="120" font-size="13" fill="#7a6a2f">Body (rich text)</text>
  <g font-size="13.5" fill="#2b2b2b">
    <rect x="388" y="132" width="354" height="30" rx="5" fill="#f0efe9" stroke="#d8d8cf"/>
    <text x="402" y="152">$FILE · report.pdf</text>
    <rect x="388" y="168" width="354" height="30" rx="5" fill="#f0efe9" stroke="#d8d8cf"/>
    <text x="402" y="188">$FILE · chart.png</text>
    <rect x="388" y="204" width="354" height="30" rx="5" fill="#f0efe9" stroke="#d8d8cf"/>
    <text x="402" y="224">$FILE · spec.docx</text>
  </g>

  <!-- Batch delete callout -->
  <rect x="40" y="300" width="720" height="66" rx="8" fill="#fff5f5" stroke="#f0c9c9" stroke-width="1.3"/>
  <text x="62" y="328" font-size="14" font-weight="700" fill="#a33">Batch delete</text>
  <text x="62" y="352" font-size="13.5" fill="#7a2b2b" font-family="ui-monospace, SFMono-Regular, Menlo, Consolas, monospace">Call doc.RemoveItem("$FILE")</text>
  <text x="330" y="352" font-size="13.5" fill="#7a2b2b">→ removes all $FILE items at once — every attachment gone</text>
</svg>
